<svg width="24" height="24" viewBox="0 0 24 24" fill="none" xmlns="http://www.w3.org/2000/svg">
<path fill-rule="evenodd" clip-rule="evenodd" d="M1.10001 12.012C1.10001 11.4045 1.59249 10.912 2.20001 10.912H13.929C14.5365 10.912 15.029 11.4045 15.029 12.012C15.029 12.6195 14.5365 13.112 13.929 13.112H2.20001C1.59249 13.112 1.10001 12.6195 1.10001 12.012Z" fill="#8B95A1"/>
<path fill-rule="evenodd" clip-rule="evenodd" d="M8.21097 6.00233C8.64047 6.43199 8.64033 7.12847 8.21067 7.55797L3.75579 12.0111L8.21082 16.4662C8.6404 16.8958 8.6404 17.5922 8.21082 18.0218C7.78125 18.4514 7.08476 18.4514 6.65519 18.0218L1.42219 12.7888C1.21587 12.5825 1.09998 12.3027 1.10001 12.0109C1.10003 11.7191 1.21598 11.4393 1.42234 11.233L6.65534 6.00203C7.085 5.57254 7.78148 5.57267 8.21097 6.00233Z" fill="#8B95A1"/>
<path fill-rule="evenodd" clip-rule="evenodd" d="M14.237 4.72C13.8922 4.72 13.5616 4.85696 13.3178 5.10076C13.074 5.34456 12.937 5.67522 12.937 6.02V7.714C12.937 8.32151 12.4445 8.814 11.837 8.814C11.2295 8.814 10.737 8.32151 10.737 7.714V6.02C10.737 5.09174 11.1057 4.2015 11.7621 3.54512C12.4185 2.88875 13.3087 2.52 14.237 2.52H18.685C19.6133 2.52 20.5035 2.88875 21.1599 3.54512C21.8163 4.2015 22.185 5.09174 22.185 6.02V18.005C22.1846 18.933 21.8157 19.8233 21.1594 20.4794C20.503 21.1354 19.613 21.504 18.685 21.504H14.237C13.3087 21.504 12.4185 21.1352 11.7621 20.4789C11.1057 19.8225 10.737 18.9323 10.737 18.004V16.314C10.737 15.7065 11.2295 15.214 11.837 15.214C12.4445 15.214 12.937 15.7065 12.937 16.314V18.004C12.937 18.3488 13.074 18.6794 13.3178 18.9232C13.5616 19.167 13.8922 19.304 14.237 19.304H18.685C19.0297 19.304 19.3603 19.1671 19.604 18.9234C19.8478 18.6797 19.9849 18.3492 19.985 18.0045V6.02C19.985 5.67521 19.848 5.34455 19.6042 5.10076C19.3604 4.85696 19.0298 4.72 18.685 4.72H14.237Z" fill="#8B95A1"/>
</svg>
