<svg width="24" height="24" viewBox="0 0 24 24" fill="none" xmlns="http://www.w3.org/2000/svg">
<path fill-rule="evenodd" clip-rule="evenodd" d="M4.11803 6.1998H20.118C20.4363 6.1998 20.7415 6.07338 20.9666 5.84833C21.1916 5.62329 21.318 5.31806 21.318 4.9998C21.318 4.68154 21.1916 4.37632 20.9666 4.15128C20.7415 3.92623 20.4363 3.7998 20.118 3.7998H4.11803C3.79977 3.7998 3.49455 3.92623 3.2695 4.15128C3.04446 4.37632 2.91803 4.68154 2.91803 4.9998C2.91803 5.31806 3.04446 5.62329 3.2695 5.84833C3.49455 6.07338 3.79977 6.1998 4.11803 6.1998ZM20.118 10.7998H4.11803C3.79977 10.7998 3.49455 10.9262 3.2695 11.1513C3.04446 11.3763 2.91803 11.6815 2.91803 11.9998C2.91803 12.3181 3.04446 12.6233 3.2695 12.8483C3.49455 13.0734 3.79977 13.1998 4.11803 13.1998H20.118C20.4363 13.1998 20.7415 13.0734 20.9666 12.8483C21.1916 12.6233 21.318 12.3181 21.318 11.9998C21.318 11.6815 21.1916 11.3763 20.9666 11.1513C20.7415 10.9262 20.4363 10.7998 20.118 10.7998ZM20.118 17.7998H4.11803C3.96044 17.7998 3.8044 17.8308 3.65881 17.8911C3.51322 17.9515 3.38093 18.0398 3.2695 18.1513C3.15807 18.2627 3.06968 18.395 3.00937 18.5406C2.94907 18.6862 2.91803 18.8422 2.91803 18.9998C2.91803 19.1574 2.94907 19.3134 3.00937 19.459C3.06968 19.6046 3.15807 19.7369 3.2695 19.8483C3.38093 19.9598 3.51322 20.0482 3.65881 20.1085C3.8044 20.1688 3.96044 20.1998 4.11803 20.1998H20.118C20.2756 20.1998 20.4317 20.1688 20.5773 20.1085C20.7228 20.0482 20.8551 19.9598 20.9666 19.8483C21.078 19.7369 21.1664 19.6046 21.2267 19.459C21.287 19.3134 21.318 19.1574 21.318 18.9998C21.318 18.8422 21.287 18.6862 21.2267 18.5406C21.1664 18.395 21.078 18.2627 20.9666 18.1513C20.8551 18.0398 20.7228 17.9515 20.5773 17.8911C20.4317 17.8308 20.2756 17.7998 20.118 17.7998Z" fill="#A2A2A2"/>
</svg>
