<svg width="24" height="24" viewBox="0 0 24 24" fill="none" xmlns="http://www.w3.org/2000/svg">
<g id="icon-arrow-left-small-mono">
<path id="Vector" fill-rule="evenodd" clip-rule="evenodd" d="M15.375 20.1C15.1977 20.1001 15.0222 20.0651 14.8584 19.9972C14.6947 19.9292 14.546 19.8296 14.421 19.704L7.67095 12.954C7.54555 12.8286 7.44607 12.6798 7.3782 12.516C7.31032 12.3521 7.27539 12.1765 7.27539 11.9992C7.27539 11.8219 7.31032 11.6463 7.3782 11.4825C7.44607 11.3187 7.54555 11.1698 7.67095 11.0445L14.421 4.29448C14.5453 4.16475 14.6944 4.06117 14.8593 3.9898C15.0242 3.91843 15.2018 3.88071 15.3815 3.87886C15.5612 3.877 15.7395 3.91105 15.9058 3.979C16.0722 4.04695 16.2233 4.14744 16.3504 4.27457C16.4774 4.4017 16.5778 4.55291 16.6456 4.71934C16.7134 4.88577 16.7473 5.06407 16.7453 5.24378C16.7433 5.42348 16.7055 5.60098 16.634 5.76587C16.5625 5.93075 16.4588 6.0797 16.329 6.20398L10.5345 12L16.329 17.7945C16.518 17.9832 16.6469 18.2238 16.6992 18.4857C16.7514 18.7477 16.7248 19.0193 16.6227 19.2662C16.5205 19.513 16.3475 19.724 16.1254 19.8724C15.9032 20.0208 15.6421 20.1 15.375 20.1Z" fill="#8B95A1"/>
</g>
</svg>
